HIERARCHY
ROOT Hips
{
	OFFSET -0.001795 -0.223333 0.028219
	CHANNELS 6 Xposition Yposition Zposition Zrotation Yrotation Xrotation 
	JOINT LeftUpLeg
	{
		OFFSET 0.069520 -0.091406 -0.006815
		CHANNELS 3 Zrotation Yrotation Xrotation
		JOINT LeftLeg
		{
			OFFSET 0.034277 -0.375199 -0.004496
			CHANNELS 3 Zrotation Yrotation Xrotation
			JOINT LeftFoot
			{
				OFFSET -0.013596 -0.397961 -0.043693
				CHANNELS 3 Zrotation Yrotation Xrotation
				JOINT LeftToe
				{
					OFFSET 0.026358 -0.055791 0.119288
					CHANNELS 3 Zrotation Yrotation Xrotation
					End Site
					{
						OFFSET 0.000000 0.000000 0.000000
					}
				}
			}
		}
	}
	JOINT RightUpLeg
	{
		OFFSET -0.067670 -0.090522 -0.004320
		CHANNELS 3 Zrotation Yrotation Xrotation
		JOINT RightLeg
		{
			OFFSET -0.038290 -0.382569 -0.008850
			CHANNELS 3 Zrotation Yrotation Xrotation
			JOINT RightFoot
			{
				OFFSET 0.015774 -0.398415 -0.042312
				CHANNELS 3 Zrotation Yrotation Xrotation
				JOINT RightToe
				{
					OFFSET -0.025372 -0.048144 0.123348
					CHANNELS 3 Zrotation Yrotation Xrotation
					End Site
					{
						OFFSET 0.000000 0.000000 0.000000
					}
				}
			}
		}
	}
	JOINT Spine
	{
		OFFSET -0.002533 0.108963 -0.026696
		CHANNELS 3 Zrotation Yrotation Xrotation
		JOINT Spine1
		{
			OFFSET 0.005487 0.135180 0.001092
			CHANNELS 3 Zrotation Yrotation Xrotation
			JOINT Spine2
			{
				OFFSET 0.001457 0.052922 0.025425
				CHANNELS 3 Zrotation Yrotation Xrotation
				JOINT Neck
				{
					OFFSET -0.002778 0.213870 -0.042857
					CHANNELS 3 Zrotation Yrotation Xrotation
					JOINT Head
					{
						OFFSET 0.005152 0.064970 0.051349
						CHANNELS 3 Zrotation Yrotation Xrotation
						End Site
						{
							OFFSET 0.000000 0.000000 0.000000
						}
					}
				}
				JOINT LeftShoulder
				{
					OFFSET 0.078845 0.121749 -0.034090
					CHANNELS 3 Zrotation Yrotation Xrotation
					JOINT LeftArm
					{
						OFFSET 0.090977 0.030469 -0.008868
						CHANNELS 3 Zrotation Yrotation Xrotation
						JOINT LeftForeArm
						{
							OFFSET 0.259612 -0.012772 -0.027456
							CHANNELS 3 Zrotation Yrotation Xrotation
							JOINT LeftHand
							{
								OFFSET 0.249234 0.008986 -0.001171
								CHANNELS 3 Zrotation Yrotation Xrotation
								End Site
								{
									OFFSET 0.000000 0.000000 0.000000
								}
							}
						}
					}
				}
				JOINT RightShoulder
				{
					OFFSET -0.081759 0.118833 -0.038615
					CHANNELS 3 Zrotation Yrotation Xrotation
					JOINT RightArm
					{
						OFFSET -0.096012 0.032551 -0.009143
						CHANNELS 3 Zrotation Yrotation Xrotation
						JOINT RightForeArm
						{
							OFFSET -0.253742 -0.013329 -0.021401
							CHANNELS 3 Zrotation Yrotation Xrotation
							JOINT RightHand
							{
								OFFSET -0.255298 0.007772 -0.005559
								CHANNELS 3 Zrotation Yrotation Xrotation
								End Site
								{
									OFFSET 0.000000 0.000000 0.000000
								}
							}
						}
					}
				}
			}
		}
	}
}
MOTION
Frames: 15
Frame Time: 0.050000
0.000000 0.596313 0.000000 -0.388318 -3.994855 32.823991 14.931105 -1.375490 44.950813 -21.893050 -8.752710 -83.283747 86.552116 46.906802 89.027585 0.000000 0.000000 0.000000 -12.574648 2.519994 42.406186 25.486978 13.359932 -76.726208 -106.772743 -41.050845 113.033480 0.000000 0.000000 0.000000 -1.782687 1.093178 -20.381714 3.804004 6.201429 -99.899695 -5.189394 -0.483541 107.324415 -13.446001 3.775897 -109.406043 0.000000 0.000000 0.000000 -23.817932 20.813625 -8.534139 -40.438941 -5.942453 -22.547123 94.429310 61.594582 85.911941 0.000000 0.000000 0.000000 0.620493 -25.886246 -16.569177 35.785820 -16.097737 -20.940963 -79.857916 -21.760745 26.066262 0.000000 0.000000 0.000000 
-0.000632 0.593338 -0.000409 -1.507037 -5.121505 34.008045 13.430417 -0.286788 44.436043 -19.919171 -6.737898 -83.429838 85.715285 47.850637 87.191157 0.000000 0.000000 0.000000 -12.193261 2.706091 40.868846 25.464839 13.671151 -75.495700 -108.868231 -37.902411 116.557113 0.000000 0.000000 0.000000 -0.316679 1.386459 -21.638538 0.464100 5.604663 -101.582026 -1.713791 -5.526339 109.814134 -32.806887 3.482631 -108.687528 0.000000 0.000000 0.000000 -26.416235 17.805527 -4.815921 -37.060954 -10.132954 -21.813090 99.004193 65.826762 92.289894 0.000000 0.000000 0.000000 -1.371593 -27.615974 -18.482303 40.043843 -20.541502 -25.200706 -77.896295 -17.090805 23.254569 0.000000 0.000000 0.000000 
-0.000828 0.594052 -0.000505 -2.863228 -7.283046 34.520791 13.143426 0.766836 47.022145 -20.591512 -6.592780 -84.897281 77.908816 46.344836 84.344173 0.000000 0.000000 0.000000 -14.051588 4.260828 39.942443 26.402196 15.105633 -75.423280 -103.332066 -34.920612 117.887073 0.000000 0.000000 0.000000 0.721592 1.882676 -23.673260 1.243835 7.694867 -105.294383 -1.347534 -5.080405 117.340481 -42.814472 2.988036 -111.221699 0.000000 0.000000 0.000000 -26.278539 17.853334 -4.005198 -37.271731 -12.532685 -24.681368 102.661311 65.298741 100.102764 0.000000 0.000000 0.000000 1.443118 -27.849580 -19.449081 40.692809 -19.576180 -28.140291 -75.517700 -17.772547 25.096991 0.000000 0.000000 0.000000 
-0.001181 0.589917 -0.000236 -3.187643 -7.391131 34.663176 13.576254 0.661972 47.450350 -21.375719 -7.133430 -85.419722 79.163252 46.901615 84.329771 0.000000 0.000000 0.000000 -14.395127 4.577400 40.758605 27.700785 16.203017 -76.301034 -100.960713 -33.011607 119.566837 0.000000 0.000000 0.000000 1.019328 1.921172 -23.629967 -0.490875 7.023553 -106.020717 -1.155131 -8.054204 117.220781 -50.603266 4.313579 -108.439107 0.000000 0.000000 0.000000 -27.692659 17.613845 -2.763123 -35.845269 -12.967393 -24.014906 105.428932 68.530403 105.120519 0.000000 0.000000 0.000000 -2.037021 -29.236166 -21.252398 42.183173 -22.174473 -28.756321 -73.686833 -14.227058 21.551643 0.000000 0.000000 0.000000 
-0.001524 0.590314 0.001296 -3.095657 -6.613275 34.458899 14.525959 -0.010197 48.239874 -21.888348 -7.949534 -86.070585 77.611692 46.071697 84.474263 0.000000 0.000000 0.000000 -14.182931 4.369274 42.274294 26.395216 15.556756 -78.455919 -95.265480 -31.843855 119.763929 0.000000 0.000000 0.000000 1.146413 1.931734 -24.420471 -0.870935 6.419666 -108.088714 -2.593171 -8.015855 120.519684 -50.633638 3.643204 -110.968545 0.000000 0.000000 0.000000 -28.394385 17.649498 -2.122285 -35.162452 -12.992621 -25.410228 110.257394 68.105762 110.124120 0.000000 0.000000 0.000000 -1.344111 -28.369692 -21.164546 41.643402 -22.998798 -30.427399 -69.712821 -13.979951 19.368387 0.000000 0.000000 0.000000 
-0.001759 0.588085 0.003229 -3.985565 -7.482253 34.998717 14.217788 0.543222 49.189414 -22.516430 -8.281136 -87.386848 77.782975 46.518192 83.842024 0.000000 0.000000 0.000000 -14.975427 5.072859 41.792307 26.707903 15.644934 -77.017634 -89.244694 -31.565020 118.419778 0.000000 0.000000 0.000000 2.303562 2.293772 -25.767867 -1.475788 6.953143 -110.571299 -3.056865 -8.565600 123.303863 -48.543431 3.981412 -111.157549 0.000000 0.000000 0.000000 -28.025696 17.942922 -2.117630 -35.491458 -12.342437 -26.702031 110.677943 65.372068 108.029076 0.000000 0.000000 0.000000 -3.110054 -28.850280 -22.303615 41.953292 -26.363364 -32.394870 -66.939492 -9.825956 15.467869 0.000000 0.000000 0.000000 
-0.002263 0.587726 0.004896 -3.543421 -6.867171 34.719916 15.074920 -0.113834 49.226045 -23.813368 -9.363615 -86.707600 77.416370 46.959471 82.747322 0.000000 0.000000 0.000000 -14.402911 4.658861 42.840401 25.871508 15.099747 -77.886385 -85.849245 -30.322279 119.305897 0.000000 0.000000 0.000000 1.940110 2.283364 -26.629699 -1.311638 6.533695 -110.993616 -3.828019 -8.193355 124.510423 -46.563399 3.918843 -111.874871 0.000000 0.000000 0.000000 -27.792333 17.521824 -1.718166 -35.933685 -12.062276 -27.533246 110.926084 63.878746 107.151390 0.000000 0.000000 0.000000 -1.906141 -27.996711 -21.674682 42.004303 -27.136209 -33.862007 -65.744352 -10.846035 15.487685 0.000000 0.000000 0.000000 
-0.003050 0.586852 0.005973 -3.653720 -6.731807 34.867997 15.439544 -0.303683 49.692293 -24.652741 -10.098678 -87.047066 76.527717 47.293555 81.437610 0.000000 0.000000 0.000000 -14.148041 4.509444 42.983983 25.594111 14.811352 -77.536315 -81.572876 -29.733040 119.005831 0.000000 0.000000 0.000000 1.907823 2.397566 -27.701694 -1.620215 6.246667 -111.509268 -4.418201 -9.045438 125.325475 -45.210620 4.373198 -111.372988 0.000000 0.000000 0.000000 -27.099810 17.097063 -1.360289 -36.557955 -12.353665 -27.649404 111.984049 62.010783 106.479149 0.000000 0.000000 0.000000 -2.671872 -27.743158 -21.726062 42.421092 -28.359593 -34.824509 -65.670065 -10.799481 14.775952 0.000000 0.000000 0.000000 
-0.003998 0.584924 0.006609 -3.362068 -6.386440 34.830652 15.805551 -0.607963 50.044604 -25.355318 -10.786525 -87.072032 75.478938 47.547515 80.123068 0.000000 0.000000 0.000000 -14.123645 4.410373 43.353801 25.587628 14.658823 -77.637531 -80.766835 -29.471151 119.224634 0.000000 0.000000 0.000000 1.794698 2.350582 -27.869099 -1.749724 5.990643 -112.353076 -4.915180 -9.206592 125.658572 -46.037151 4.678442 -110.897975 0.000000 0.000000 0.000000 -26.602743 16.964967 -1.337485 -36.566727 -12.332303 -27.474493 111.464870 60.417262 103.776521 0.000000 0.000000 0.000000 -3.369547 -27.159097 -21.227779 43.874299 -29.554057 -36.259626 -65.929110 -11.749203 15.629853 0.000000 0.000000 0.000000 
-0.004877 0.583808 0.007281 -3.486858 -6.865986 34.621094 15.574632 -0.278182 50.652088 -25.076853 -10.504594 -87.139334 74.879269 47.224803 80.238366 0.000000 0.000000 0.000000 -14.311021 4.671033 43.442028 25.673947 14.807438 -77.334028 -81.475191 -29.799563 118.826023 0.000000 0.000000 0.000000 2.500337 2.467378 -27.692853 -1.539978 6.492135 -112.007619 -4.867565 -8.942837 124.844683 -42.876954 4.529949 -111.205400 0.000000 0.000000 0.000000 -26.471781 16.744567 -1.246228 -36.863523 -12.143141 -27.261921 112.904037 59.296705 104.531135 0.000000 0.000000 0.000000 -4.107132 -27.346126 -21.327733 45.049594 -29.864774 -36.421242 -67.746326 -12.623076 17.150527 0.000000 0.000000 0.000000 
-0.005614 0.583473 0.008013 -3.480960 -6.862859 34.351797 15.404818 -0.163027 51.215037 -24.686375 -10.403311 -87.599745 74.802127 46.971005 80.624714 0.000000 0.000000 0.000000 -14.380714 4.688449 43.324659 25.355588 14.442879 -76.761094 -80.701339 -28.816058 120.018857 0.000000 0.000000 0.000000 2.945468 2.505594 -27.665493 -1.194707 6.723469 -111.636790 -5.128749 -8.668841 124.040552 -41.376500 4.618483 -111.034281 0.000000 0.000000 0.000000 -26.806378 16.549486 -1.003782 -36.025635 -12.926904 -26.454563 116.976778 58.772476 107.637522 0.000000 0.000000 0.000000 -5.316652 -27.412852 -21.418207 46.507133 -29.845427 -36.638725 -70.004684 -13.308829 19.165142 0.000000 0.000000 0.000000 
-0.006110 0.582863 0.009051 -3.322368 -6.804475 34.324940 15.270272 -0.115313 51.537784 -24.568702 -10.475361 -87.921051 74.266800 46.757804 80.558460 0.000000 0.000000 0.000000 -14.225053 4.557354 43.227024 25.167745 14.092844 -76.004543 -80.390767 -29.263586 119.150502 0.000000 0.000000 0.000000 3.186142 2.630590 -28.577032 -0.316956 7.174415 -111.643075 -5.490819 -7.606561 124.340314 -37.510366 4.766588 -110.795643 0.000000 0.000000 0.000000 -25.473720 16.462537 -1.492931 -36.871843 -12.513075 -26.858367 119.484128 55.377934 107.443340 0.000000 0.000000 0.000000 -6.275901 -27.311404 -21.528491 48.916523 -29.889883 -38.116506 -72.613071 -12.338567 21.460127 0.000000 0.000000 0.000000 
-0.006560 0.583340 0.010337 -3.172814 -6.794076 34.012488 15.314800 -0.149086 51.524181 -24.782006 -10.619724 -87.683503 75.441111 46.889753 81.273652 0.000000 0.000000 0.000000 -14.214921 4.526716 43.211209 24.980067 13.714366 -75.010942 -79.499356 -29.331087 118.684855 0.000000 0.000000 0.000000 3.404305 2.725089 -29.124061 0.139847 7.366948 -111.004594 -5.842470 -7.507395 123.934157 -36.444250 5.063899 -110.140605 0.000000 0.000000 0.000000 -24.956061 16.789707 -1.861236 -36.221866 -11.588213 -26.640773 122.468255 52.645829 106.354511 0.000000 0.000000 0.000000 -7.133560 -27.337636 -21.728948 50.405088 -29.282859 -38.403752 -74.849547 -12.470162 23.602397 0.000000 0.000000 0.000000 
-0.007102 0.583092 0.011527 -3.025547 -7.070250 33.714319 15.427369 -0.102965 51.757238 -24.949687 -10.713196 -87.787632 76.716404 46.293372 83.318001 0.000000 0.000000 0.000000 -14.768660 4.885574 43.093622 25.704548 14.003259 -74.277299 -80.887770 -29.624111 118.556502 0.000000 0.000000 0.000000 3.915349 2.882647 -29.593230 0.988210 7.953884 -110.103338 -5.412620 -6.846306 123.276834 -33.784157 5.087314 -109.409026 0.000000 0.000000 0.000000 -23.400644 16.682228 -2.451594 -35.233164 -9.073757 -26.367378 122.004267 49.279875 97.978439 0.000000 0.000000 0.000000 -7.938129 -27.683554 -22.034575 52.069024 -29.099952 -38.692350 -77.305924 -11.850134 26.088269 0.000000 0.000000 0.000000 
-0.007895 0.582904 0.012569 -2.915850 -6.969397 33.695567 15.286286 -0.072347 51.759866 -24.695352 -10.505798 -87.478575 75.741778 46.380903 82.437177 0.000000 0.000000 0.000000 -15.003112 4.997571 43.353162 26.201408 14.146322 -74.032166 -79.191868 -29.855604 117.799437 0.000000 0.000000 0.000000 3.652804 2.855080 -29.769302 2.426923 8.776441 -110.435131 -6.245080 -6.012432 123.065508 -32.910873 5.306554 -108.933423 0.000000 0.000000 0.000000 -21.392979 17.612630 -3.894190 -34.759609 -4.495744 -26.722162 117.109087 44.875398 84.204087 0.000000 0.000000 0.000000 -9.697513 -27.690157 -22.302285 53.082729 -29.488301 -38.670212 -78.474179 -10.843535 26.394951 0.000000 0.000000 0.000000 
